<svg width="133" height="18" viewBox="0 0 133 18" fill="none" xmlns="http://www.w3.org/2000/svg">
<path d="M113.38 6.771V17.0686H116.672V10.2035H128.709V17.0686H132.001V6.771H113.38ZM116.296 3.43252H128.991C130.778 3.10337 132.048 1.50467 132.424 0H112.863C113.239 1.50467 114.556 3.05635 116.296 3.43252ZM103.365 17.0686C105.011 16.3632 105.904 15.1407 106.28 13.7301H91.4688V0.0470208H88.1303V17.0686H103.365ZM63.4444 3.3855H75.1996C76.9864 2.86827 78.444 1.50467 78.8202 0.0470208H60.1999V10.1095H75.4347V13.636H63.4914C61.6106 14.1533 60.0118 15.4228 59.2125 17.0686H78.7261V6.771H63.4914L63.4444 3.3855ZM34.4795 3.43252H47.1752C48.962 3.10337 50.2785 1.50467 50.6077 0H31C31.3762 1.50467 32.6928 3.05635 34.4795 3.43252ZM34.4795 10.1565H47.1752C48.962 9.82735 50.2785 8.22864 50.6077 6.72398H31C31.3762 8.22864 32.6928 9.78033 34.4795 10.1565ZM34.4795 17.0686H47.1752C48.962 16.7394 50.2785 15.1407 50.6077 13.636H31C31.3762 15.1407 32.6928 16.7394 34.4795 17.0686Z" fill="white"/>
<path d="M0 0.0470208C0.376167 1.55169 1.69275 3.05635 3.43252 3.43252H8.79289L9.07502 3.52656V17.0215H12.4135V3.52656L12.6956 3.43252H18.056C19.8428 2.96231 21.1123 1.55169 21.4885 0.0470208V0L0 0.0470208Z" fill="white"/>
</svg>
